<svg width="227" height="302" xmlns="http://www.w3.org/2000/svg" xmlns:xlink="http://www.w3.org/1999/xlink" overflow="hidden"><defs><filter id="fx0" x="-10%" y="-10%" width="120%" height="120%" filterUnits="userSpaceOnUse" primitiveUnits="userSpaceOnUse"><feComponentTransfer color-interpolation-filters="sRGB"><feFuncR type="discrete" tableValues="0 0"/><feFuncG type="discrete" tableValues="0 0"/><feFuncB type="discrete" tableValues="0 0"/><feFuncA type="linear" slope="0.4" intercept="0"/></feComponentTransfer><feGaussianBlur stdDeviation="1.08817 1.08617"/></filter><filter id="fx1" x="-10%" y="-10%" width="120%" height="120%" filterUnits="userSpaceOnUse" primitiveUnits="userSpaceOnUse"><feComponentTransfer color-interpolation-filters="sRGB"><feFuncR type="discrete" tableValues="0 0"/><feFuncG type="discrete" tableValues="0 0"/><feFuncB type="discrete" tableValues="0 0"/><feFuncA type="linear" slope="0.4" intercept="0"/></feComponentTransfer><feGaussianBlur stdDeviation="1.08817 1.08617"/></filter><clipPath id="clip2"><rect x="0" y="0" width="227" height="302"/></clipPath><clipPath id="clip3"><rect x="50" y="44" width="102" height="55"/></clipPath><clipPath id="clip4"><rect x="0" y="0" width="200" height="160"/></clipPath><clipPath id="clip5"><rect x="46" y="44" width="93" height="54"/></clipPath><clipPath id="clip6"><rect x="0" y="0" width="189" height="160"/></clipPath></defs><g clip-path="url(#clip2)"><rect x="0" y="0" width="227" height="302.444" fill="#FFFFFF"/><rect x="170" y="8.98346" width="38" height="283.479"/><rect x="57" y="131.758" width="151" height="37.9302"/><path d="M131 150.857C131.045 144.536 156.934 131.713 169.767 131.758 182.601 131.803 208.044 144.805 208 151.126 207.955 157.448 182.289 169.643 169.5 169.688 156.711 169.733 130.955 157.179 131 150.857Z" fill="#FFFFFF" fill-rule="evenodd"/><g clip-path="url(#clip3)" filter="url(#fx0)" transform="translate(-4 143)"><g clip-path="url(#clip4)"><path d="M45.144-47.52 45.144 0.792 42.552 0.792 13.608-32.112 13.608 0 5.976 0 5.976-48.312 8.64-48.312 37.512-15.48 37.512-47.52ZM79.3563-48.312C83.5803-48.312 87.3483-47.448 90.6603-45.72 93.9723-43.992 96.7563-41.544 99.0123-38.376L93.4683-33.84C91.7883-36.192 89.7843-38.028 87.4563-39.348 85.1283-40.668 82.4043-41.328 79.2843-41.328 76.7402-41.328 74.4243-40.884 72.3363-39.996 70.2483-39.108 68.4482-37.884 66.9363-36.324 65.4243-34.764 64.2603-32.916 63.4443-30.78 62.6283-28.644 62.2203-26.328 62.2203-23.832 62.2203-21.288 62.6403-18.924 63.4803-16.74 64.3203-14.556 65.5203-12.672 67.0803-11.088 68.6403-9.504 70.4883-8.268 72.6243-7.38 74.7603-6.492 77.1243-6.048 79.7163-6.048 82.9323-6.048 85.7402-6.708 88.1403-8.028 90.5403-9.348 92.4603-11.088 93.9003-13.248L93.9003-18.36 79.2843-18.36 79.2843-25.128 101.532-25.128 101.532-11.736C100.524-9.864 99.2523-8.16 97.7163-6.624 96.1803-5.088 94.4642-3.768 92.5683-2.664 90.6723-1.56 88.6083-0.708 86.3763-0.108 84.1443 0.492 81.8043 0.792 79.3563 0.792 75.8043 0.792 72.5043 0.168 69.4563-1.08 66.4082-2.328 63.7683-4.056 61.5363-6.264 59.3043-8.472 57.5403-11.076 56.2443-14.076 54.9483-17.076 54.3003-20.304 54.3003-23.76 54.3003-27.216 54.9483-30.444 56.2443-33.444 57.5403-36.444 59.3163-39.048 61.5723-41.256 63.8283-43.464 66.4803-45.192 69.5283-46.44 72.5763-47.688 75.8523-48.312 79.3563-48.312Z" transform="matrix(1 0 0 0.998164 47.1376 95)"/></g></g><text font-family="Cera PROModern Medium,Cera PROModern Medium_MSFontService,sans-serif" font-weight="500" font-size="72" transform="matrix(1 0 0 0.998164 41.9547 237)">NG</text><rect x="19" y="8.98347" width="151" height="37.9302"/><rect x="19" y="254.532" width="151" height="37.9302"/><g clip-path="url(#clip5)" filter="url(#fx1)" transform="translate(1 21)"><g clip-path="url(#clip6)"><path d="M40.176-6.84 40.176 0 1.872 0 1.872-2.088 28.152-40.68 4.968-40.68 4.968-47.52 40.104-47.52 40.104-45.432 13.68-6.84ZM87.5084 0 79.8764 0 79.8764-21.744 55.9724-21.744 55.9724 0 48.3404 0 48.3404-47.52 55.9724-47.52 55.9724-28.584 79.8764-28.584 79.8764-47.52 87.5084-47.52Z" transform="matrix(1 0 0 0.998164 47.8085 95)"/></g></g><text font-family="Cera PROModern Medium,Cera PROModern Medium_MSFontService,sans-serif" font-weight="500" font-size="72" transform="matrix(1 0 0 0.998164 47.6256 115)">ZH</text><path d="M153 150.723C153 141.351 160.611 133.754 170 133.754 179.389 133.754 187 141.351 187 150.723 187 160.094 179.389 167.692 170 167.692 160.611 167.692 153 160.094 153 150.723Z" fill-rule="evenodd"/></g></svg>